Coordinates
version=1
nRows=37
nColumns=19
inDegrees=yes

Units are S.I. units (second, meters, Newtons, ...)
If the header above contains a line with 'inDegrees', this indicates whether rotational values are in degrees (yes) or radians (no).

endheader
time	pelvis_tilt	pelvis_list	pelvis_rotation	pelvis_tx	pelvis_ty	pelvis_tz	hip_flexion_r	hip_adduction_r	hip_rotation_r	knee_angle_r	knee_angle_r_beta	ankle_angle_r	hip_flexion_l	hip_adduction_l	hip_rotation_l	knee_angle_l	knee_angle_l_beta	ankle_angle_l
     13.54000000	     -8.14409356	      8.04175371	      6.94240557	      2.48449886	      0.93706176	      1.06957717	    -17.47823571	    -14.28416327	    -24.97750823	     54.73228064	      0.95525850	    -15.34045263	     25.12317609	     13.77896175	     -4.33316730	      0.95878480	      0.01673395	      3.82936993
     13.54666667	     -7.14134751	      8.86501961	      6.83254094	      2.48362180	      0.93455214	      1.06947454	    -17.31840012	    -15.25314554	    -23.27809889	     58.61382610	      1.02300425	    -14.98160073	     23.99107106	     14.66194649	     -4.60309638	      1.95914512	      0.03419353	      3.09945996
     13.55333333	     -6.12186688	      9.71080382	      6.83415636	      2.48220701	      0.93178687	      1.06948114	    -17.05558357	    -16.16305366	    -21.72289917	     62.56505940	      1.09196628	    -14.60134814	     23.23550963	     15.50728314	     -5.17614753	      4.07442188	      0.07111208	      2.62417564
     13.56000000	     -5.60429515	     10.32116160	      7.03380840	      2.48019792	      0.92815393	      1.06942576	    -16.05879388	    -16.78655569	    -20.16211865	     66.61744044	      1.16269367	    -14.15243625	     23.47072207	     16.09527048	     -5.98895620	      7.36726250	      0.12858299	      2.47263871
     13.56666667	     -4.86153520	     10.97738620	      7.27029689	      2.47803185	      0.92447959	      1.06960618	    -15.28021302	    -17.41584536	    -18.85822415	     70.59079258	      1.23204175	    -13.65710006	     23.56053903	     16.62334662	     -6.81859931	     11.13161620	      0.19428335	      2.58465595
     13.57333333	     -4.20389203	     11.58154714	      7.54409560	      2.47569160	      0.92047479	      1.06995779	    -14.30932564	    -17.98286114	    -17.63163876	     74.52967216	      1.30078817	    -13.08485845	     23.77875831	     17.03271103	     -7.58201580	     15.19061061	      0.26512617	      2.95141485
     13.58000000	     -3.00384496	     12.45695231	      7.77080592	      2.47343614	      0.91695228	      1.07056057	    -14.02465799	    -18.81708233	    -16.76688359	     78.25915716	      1.36587996	    -12.38727137	     23.22893853	     17.62863031	     -8.18116964	     19.11059938	      0.33354288	      3.56549393
     13.58666667	     -2.97118556	     12.56130561	      8.07261690	      2.47068565	      0.91217394	      1.07113206	    -11.95051270	    -18.88721770	    -15.27840726	     82.12375812	      1.43332997	    -11.68553908	     24.11392865	     17.49496125	     -8.62450964	     23.42827750	      0.40890058	      4.66019429
     13.59333333	     -2.51128730	     12.89893162	      8.30951153	      2.46799790	      0.90801940	      1.07190394	    -10.38285222	    -19.19915514	    -14.04557999	     85.75751152	      1.49675093	    -10.87995983	     24.24487398	     17.58610759	     -8.80022301	     27.29955785	      0.47646717	      5.99265961
     13.60000000	     -2.17765701	     13.09830061	      8.48654255	      2.46516884	      0.90407405	      1.07269517	     -8.48146305	    -19.38013823	    -12.68001914	     89.24874744	      1.55768450	    -10.04966093	     24.32964971	     17.58396236	     -8.74351205	     30.86119337	      0.53862944	      7.63855063
     13.60666667	     -2.05987914	     13.12312640	      8.65370591	      2.46216214	      0.90033230	      1.07343954	     -6.15275405	    -19.37851227	    -11.19787379	     92.57549279	      1.61574716	     -9.19810073	     24.45717350	     17.48152637	     -8.46708120	     34.08065144	      0.59481958	      9.49982161
     13.61333333	     -1.84342032	     13.01974245	      8.67738327	      2.45902496	      0.89728816	      1.07428718	     -3.73146059	    -19.19548331	     -9.58708415	     95.65634165	      1.66951811	     -8.24988513	     24.26072807	     17.24312771	     -8.10395915	     36.87638169	      0.64361428	     11.44508782
     13.62000000	     -2.24535026	     12.60134748	      8.68024730	      2.45572214	      0.89416311	      1.07498713	     -0.35160839	    -18.72004122	     -7.75403141	     98.57237070	      1.72041242	     -7.59240120	     24.53596516	     16.81240708	     -7.57524225	     39.26333178	      0.68527441	     13.57555245
     13.62666667	     -2.77863398	     12.08831853	      8.68170747	      2.45241398	      0.89154192	      1.07555130	      3.24624484	    -18.16522588	     -6.01984509	    101.17748510	      1.76588024	     -6.85574114	     24.69327824	     16.35444888	     -6.92139971	     41.18144352	      0.71875178	     15.60257022
     13.63333333	     -3.24940136	     11.40896480	      8.46077974	      2.44910015	      0.88967764	      1.07629702	      6.94973154	    -17.33091546	     -4.17709766	    103.42822853	      1.80516313	     -6.25928323	     24.55789795	     15.64654103	     -6.37599362	     42.62931490	      0.74402190	     17.57555271
     13.64000000	     -3.77805464	     10.63856061	      8.14403899	      2.44597947	      0.88844887	      1.07707931	     10.74652411	    -16.36686043	     -2.44269815	    105.27804156	      1.83744846	     -5.69167492	     24.22328774	     14.82469157	     -5.87103179	     43.59874337	      0.76094162	     19.36123616
     13.64666667	     -4.26096611	      9.82329359	      7.72593519	      2.44317032	      0.88794841	      1.07788606	     14.45663532	    -15.32345240	     -0.86711437	    106.68252287	      1.86196128	     -5.17021420	     23.56674006	     13.90905584	     -5.44701127	     44.08513939	      0.76943083	     20.94102759
     13.65333333	     -4.33752584	      9.03635930	      7.19285140	      2.44090674	      0.88869785	      1.07880669	     17.56675619	    -14.26186866	      0.42474782	    107.54493119	      1.87701314	     -4.62691501	     22.15422063	     12.93081342	     -5.11219224	     44.02706648	      0.76841727	     22.27290876
     13.66000000	     -4.64547746	      8.19960337	      6.67184941	      2.43920111	      0.88976485	      1.07955094	     20.78178746	    -13.24666881	      1.43918651	    107.97211301	      1.88446887	     -4.09885081	     20.74783303	     11.91575587	     -4.84715368	     43.58171480	      0.76064442	     23.32283867
     13.66666667	     -4.71343459	      7.48273247	      6.53857463	      2.43821158	      0.89184791	      1.07958878	     23.29939611	    -12.67698399	      1.68830024	    107.83398377	      1.88205806	     -3.38981442	     18.73898122	     11.20685407	     -4.09490743	     42.59957805	      0.74350290	     24.00345285
     13.67333333	     -4.72686539	      6.58051320	      5.71917695	      2.43764986	      0.89443140	      1.08065109	     25.87345707	    -11.50832140	      2.36519102	    107.32941255	      1.87325163	     -2.84260943	     16.58360693	      9.94273996	     -4.31391134	     41.36472580	      0.72195066	     24.47950494
     13.68000000	     -4.59979221	      5.75658187	      5.19350972	      2.43785451	      0.89777743	      1.08113892	     27.88057690	    -10.70442172	      2.42694608	    106.32624967	      1.85574314	     -2.13449920	     13.99840755	      8.90650968	     -4.22044951	     39.68113980	      0.69256654	     24.54219437
     13.68666667	     -5.04321165	      4.91380294	      5.03331338	      2.43857564	      0.90076476	      1.08098650	     30.19069642	    -10.24764185	      1.93530444	    104.96339863	      1.83195690	     -1.34032318	     11.93827477	      8.00712471	     -3.85371839	     37.86754955	      0.66091342	     24.28519653
     13.69333333	     -3.50842329	      4.08045526	      4.44549158	      2.44020382	      0.90680347	      1.08130156	     30.02147142	     -9.52698557	      1.36079369	    103.00565524	      1.79778783	     -0.43789110	      7.37080571	      6.88667321	     -3.84800337	     35.27027669	      0.61558246	     23.44162955
     13.70000000	     -3.02823010	      3.12937209	      4.13237983	      2.44198916	      0.91158814	      1.08117809	     30.82084619	     -8.92801666	      0.46642821	    100.84765992	      1.76012371	      0.45182281	      4.02929730	      5.78199717	     -3.77280284	     32.80841660	      0.57261489	     22.27411689
     13.70666667	     -2.53573584	      2.14804014	      3.93524747	      2.44406378	      0.91650315	      1.08082334	     31.36861053	     -8.42955939	     -0.72214398	     98.39624582	      1.71733846	      1.31952872	      0.66698851	      4.66667372	     -3.69275672	     30.25952760	      0.52812839	     20.63180508
     13.71333333	     -2.11336719	      1.12702044	      3.84254121	      2.44634077	      0.92133721	      1.08026287	     31.78075267	     -7.98270534	     -2.15070440	     95.69416517	      1.67017826	      2.25307409	     -2.56948016	      3.52120410	     -3.63651222	     27.72357630	      0.48386769	     18.54694415
     13.72000000	     -1.79833613	      0.07452789	      3.71538674	      2.44874037	      0.92601015	      1.07971798	     32.15921132	     -7.48871603	     -3.66022595	     92.76823232	      1.61911110	      3.09248030	     -5.59676715	      2.34078471	     -3.83153456	     25.27496529	      0.44113136	     16.04229314
     13.72666667	     -1.50199470	     -0.97509659	      3.71234767	      2.45125902	      0.93059242	      1.07897610	     32.35428395	     -7.09932512	     -5.42026406	     89.61689405	      1.56410987	      3.94341122	     -8.48155820	      1.16066857	     -4.04471979	     22.95525697	      0.40064481	     13.15016499
     13.73333333	     -1.29373353	     -2.01944647	      3.65151088	      2.45376202	      0.93494042	      1.07837985	     32.52550194	     -6.66082384	     -7.21668895	     86.28179172	      1.50590135	      4.76304760	    -11.10714243	     -0.01875415	     -4.56641140	     20.85698549	      0.36402307	      9.85938272
     13.74000000	     -1.19067305	     -3.02613551	      3.64026530	      2.45628510	      0.93910100	      1.07775414	     32.63071959	     -6.29288717	     -9.16837714	     82.71627582	      1.44367136	      5.48277096	    -13.44883163	     -1.14289082	     -5.11781538	     18.98462753	      0.33134426	      6.42624912
     13.74666667	     -1.14890184	     -3.98497569	      3.56910221	      2.45875511	      0.94306934	      1.07733232	     32.67930932	     -5.87588071	    -11.12378138	     78.95629949	      1.37804739	      6.13452460	    -15.53512490	     -2.21344126	     -5.93247958	     17.39798148	      0.30365206	      2.77641880
     13.75333333	     -1.13923704	     -4.85836481	      3.47331206	      2.46116547	      0.94688231	      1.07710926	     32.61967214	     -5.47777207	    -13.12994877	     74.99193991	      1.30885626	      6.70224328	    -17.42252440	     -3.17872588	     -6.81963751	     16.04568954	      0.28005011	     -0.93177251
     13.76000000	     -1.27538340	     -5.67213013	      3.22843411	      2.46342460	      0.95039768	      1.07733893	     32.62490612	     -4.92768396	    -14.99496044	     70.82149921	      1.23606834	      7.13886172	    -18.96688071	     -4.04753757	     -7.94305715	     15.02287799	      0.26219868	     -4.55357622
     13.76666667	     -1.55659834	     -6.38880708	      2.84585953	      2.46553372	      0.95356698	      1.07802469	     32.69754084	     -4.25772059	    -16.69968487	     66.46121783	      1.15996708	      7.44092069	    -20.19029513	     -4.78051310	     -9.20039191	     14.31286473	      0.24980661	     -7.95387709
     13.77333333	     -1.95016189	     -6.98933092	      2.33915215	      2.46736617	      0.95642834	      1.07924867	     32.81437377	     -3.43484789	    -18.16206349	     61.90375359	      1.08042432	      7.60275570	    -21.12206989	     -5.37142987	    -10.48235975	     13.93216526	      0.24316216	    -11.04370192
     13.78000000	     -2.57503251	     -7.47098359	      1.65192161	      2.46894052	      0.95873990	      1.08105348	     33.12583868	     -2.42137581	    -19.26355815	     57.18888545	      0.99813435	      7.65420842	    -21.62784678	     -5.82239940	    -11.86032383	     13.95303694	      0.24352644	    -13.66929629
